<svg width="107" height="101" viewBox="0 0 107 101" fill="none" xmlns="http://www.w3.org/2000/svg">
<path d="M53.5007 63.1252L66.8757 50.5002M66.8757 50.5002L53.5007 37.8752M66.8757 50.5002H17.834M17.834 30.5023V30.301C17.834 25.5872 17.834 23.2286 18.8058 21.4281C19.6607 19.8444 21.0238 18.5578 22.7016 17.7509C24.609 16.8335 27.1077 16.8335 32.1015 16.8335H74.9015C79.8953 16.8335 82.3887 16.8335 84.2961 17.7509C85.9739 18.5578 87.3415 19.8444 88.1964 21.4281C89.1673 23.2268 89.1673 25.5826 89.1673 30.2872V70.7152C89.1673 75.4198 89.1673 77.7722 88.1964 79.5708C87.3415 81.1545 85.9739 82.4434 84.2961 83.2504C82.3906 84.1668 79.8985 84.1668 74.9144 84.1668H32.0869C27.1028 84.1668 24.6071 84.1668 22.7016 83.2504C21.0238 82.4434 19.6607 81.1533 18.8058 79.5696C17.834 77.7692 17.834 75.4139 17.834 70.7002V70.4897" stroke="white" stroke-width="2" stroke-linecap="round" stroke-linejoin="round"/>
</svg>
